<svg xmlns="http://www.w3.org/2000/svg" viewBox="0 0 24 24" fill="none"
     stroke="currentColor" stroke-width="2" stroke-linecap="round" stroke-linejoin="round">
  <circle cx="12" cy="12" r="3" />
  <path d="M19.4 15a1.7 1.7 0 0 0 .3 1.9l.1.1a2 2 0 1 1-2.8 2.8l-.1-.1a1.7 1.7 0 0 0-1.9-.3 1.7 1.7 0 0 0-1 1.5V22a2 2 0 0 1-4 0v-.1a1.7 1.7 0 0 0-1-1.5 1.7 1.7 0 0 0-1.9.3l-.1.1a2 2 0 1 1-2.8-2.8l.1-.1a1.7 1.7 0 0 0 .3-1.9 1.7 1.7 0 0 0-1.5-1H2a2 2 0 0 1 0-4h.1a1.7 1.7 0 0 0 1.5-1 1.7 1.7 0 0 0-.3-1.9l-.1-.1A2 2 0 1 1 5 3.7l.1.1a1.7 1.7 0 0 0 1.9.3h.1A1.7 1.7 0 0 0 8 2.6V2a2 2 0 0 1 4 0v.1a1.7 1.7 0 0 0 1 1.5h.1a1.7 1.7 0 0 0 1.9-.3l.1-.1A2 2 0 1 1 21 5l-.1.1a1.7 1.7 0 0 0-.3 1.9v.1a1.7 1.7 0 0 0 1.5 1H22a2 2 0 0 1 0 4h-.1a1.7 1.7 0 0 0-1.5 1Z" />
</svg>